<svg width="316" height="31" viewBox="0 0 316 31" fill="none" xmlns="http://www.w3.org/2000/svg">
<path d="M1.39639 9.77778C1.39639 8.04525 1.84892 6.5196 2.75397 5.20081C3.65902 3.85616 4.90023 2.80889 6.47761 2.05899C8.08084 1.28323 9.90387 0.895353 11.9467 0.895353C14.0154 0.895353 15.7996 1.25737 17.2994 1.98141C18.7992 2.70545 19.9499 3.72687 20.7515 5.04566C21.579 6.36444 21.9928 7.92889 21.9928 9.73899H15.7479C15.7479 8.73051 15.3988 7.94182 14.7006 7.37293C14.0025 6.77818 13.0586 6.48081 11.8691 6.48081C10.6021 6.48081 9.58064 6.75232 8.80488 7.29535C8.05498 7.83838 7.68003 8.58828 7.68003 9.54505C7.68003 10.4242 7.91276 11.0966 8.37821 11.562C8.84367 12.0275 9.58064 12.3636 10.5891 12.5705L14.8946 13.4626C17.4546 13.9798 19.3552 14.8848 20.5964 16.1778C21.8376 17.4448 22.4582 19.2162 22.4582 21.4917C22.4582 23.3277 22.0057 24.9438 21.1006 26.3402C20.1956 27.7107 18.9156 28.7709 17.2606 29.5208C15.6315 30.2707 13.718 30.6457 11.52 30.6457C9.39963 30.6457 7.53781 30.2836 5.93458 29.5596C4.3572 28.8356 3.12892 27.8141 2.24973 26.4954C1.39639 25.1507 0.969727 23.5863 0.969727 21.802H7.21458C7.21458 22.8364 7.58952 23.638 8.33942 24.2069C9.08932 24.7758 10.1625 25.0602 11.5588 25.0602C12.981 25.0602 14.1059 24.8016 14.9334 24.2844C15.7608 23.7414 16.1746 23.0174 16.1746 22.1123C16.1746 21.3107 15.9677 20.6901 15.554 20.2505C15.1661 19.8109 14.4938 19.5006 13.537 19.3196L9.15397 18.4275C6.59397 17.9103 4.65458 16.9277 3.33579 15.4796C2.04286 14.0315 1.39639 12.1309 1.39639 9.77778Z" fill="white"/>
<path d="M38.4625 4.46384V30.1414H32.1788V4.46384H38.4625ZM24.0334 7.25656V1.43838H46.6079V7.25656H24.0334Z" fill="white"/>
<path d="M75.7297 15.7511C75.7297 18.6731 75.135 21.259 73.9455 23.5087C72.756 25.7325 71.101 27.478 68.9806 28.745C66.8602 29.9863 64.4037 30.6069 61.6109 30.6069C58.8441 30.6069 56.4004 29.9863 54.28 28.745C52.1855 27.478 50.5435 25.7325 49.354 23.5087C48.1903 21.2848 47.6085 18.7119 47.6085 15.7899C47.6085 12.8679 48.2033 10.2949 49.3928 8.07111C50.5823 5.82141 52.2243 4.07596 54.3188 2.83474C56.4392 1.56768 58.8829 0.93414 61.6497 0.93414C64.4425 0.93414 66.8861 1.56768 68.9806 2.83474C71.101 4.07596 72.756 5.80848 73.9455 8.03232C75.135 10.2562 75.7297 12.8291 75.7297 15.7511ZM69.097 15.7511C69.097 13.9152 68.7996 12.3507 68.2049 11.0578C67.6101 9.73899 66.7568 8.7305 65.6449 8.03232C64.5588 7.33414 63.24 6.98505 61.6885 6.98505C60.137 6.98505 58.8053 7.33414 57.6934 8.03232C56.5814 8.7305 55.7281 9.73899 55.1334 11.0578C54.5386 12.3507 54.2412 13.9152 54.2412 15.7511C54.2412 17.5871 54.5386 19.1644 55.1334 20.4832C55.7281 21.802 56.5814 22.8105 57.6934 23.5087C58.8053 24.2069 60.137 24.556 61.6885 24.556C63.24 24.556 64.5588 24.2069 65.6449 23.5087C66.7568 22.7846 67.6101 21.7632 68.2049 20.4444C68.7996 19.1257 69.097 17.5612 69.097 15.7511Z" fill="white"/>
<path d="M86.3915 30.1414H80.1079V1.43838H91.2012C94.6922 1.43838 97.3814 2.25293 99.2691 3.88202C101.183 5.48525 102.139 7.77374 102.139 10.7475C102.139 12.6093 101.739 14.1996 100.937 15.5184C100.161 16.8372 98.9718 17.9103 97.3685 18.7378L102.411 30.1414H95.5455L91.24 20.0954H86.3915V30.1414ZM86.3915 7.02384V14.5875H91.1625C92.533 14.5875 93.5932 14.2513 94.3431 13.579C95.1188 12.9067 95.5067 11.9628 95.5067 10.7475C95.5067 9.53212 95.1318 8.61414 94.3819 7.99353C93.6578 7.34707 92.5976 7.02384 91.2012 7.02384H86.3915Z" fill="white"/>
<path d="M125.043 30.1414H106.812V1.43838H125.043V7.25656H111.351L113.096 5.62747V12.8808H123.685V18.3887H113.096V25.9523L111.351 24.3232H125.043V30.1414Z" fill="white"/>
<path d="M146.732 1.43838V30.1414H140.449V1.43838H146.732Z" fill="white"/>
<path d="M158.928 30.1414H152.722V1.43838H158.928L172.969 22.6166H171.029V1.43838H177.235V30.1414H171.029L156.988 9.00202H158.928V30.1414Z" fill="white"/>
<path d="M191.889 9.77778C191.889 8.04525 192.341 6.5196 193.246 5.20081C194.151 3.85616 195.393 2.80889 196.97 2.05899C198.573 1.28323 200.396 0.895353 202.439 0.895353C204.508 0.895353 206.292 1.25737 207.792 1.98141C209.292 2.70545 210.442 3.72687 211.244 5.04566C212.071 6.36444 212.485 7.92889 212.485 9.73899H206.24C206.24 8.73051 205.891 7.94182 205.193 7.37293C204.495 6.77818 203.551 6.48081 202.362 6.48081C201.094 6.48081 200.073 6.75232 199.297 7.29535C198.547 7.83838 198.172 8.58828 198.172 9.54505C198.172 10.4242 198.405 11.0966 198.871 11.562C199.336 12.0275 200.073 12.3636 201.082 12.5705L205.387 13.4626C207.947 13.9798 209.848 14.8848 211.089 16.1778C212.33 17.4448 212.951 19.2162 212.951 21.4917C212.951 23.3277 212.498 24.9438 211.593 26.3402C210.688 27.7107 209.408 28.7709 207.753 29.5208C206.124 30.2707 204.21 30.6457 202.012 30.6457C199.892 30.6457 198.03 30.2836 196.427 29.5596C194.85 28.8356 193.621 27.8141 192.742 26.4954C191.889 25.1507 191.462 23.5863 191.462 21.802H197.707C197.707 22.8364 198.082 23.638 198.832 24.2069C199.582 24.7758 200.655 25.0602 202.051 25.0602C203.473 25.0602 204.598 24.8016 205.426 24.2844C206.253 23.7414 206.667 23.0174 206.667 22.1123C206.667 21.3107 206.46 20.6901 206.046 20.2505C205.659 19.8109 204.986 19.5006 204.029 19.3196L199.646 18.4275C197.086 17.9103 195.147 16.9277 193.828 15.4796C192.535 14.0315 191.889 12.1309 191.889 9.77778Z" fill="white"/>
<path d="M228.955 4.46384V30.1414H222.671V4.46384H228.955ZM214.526 7.25656V1.43838H237.1V7.25656H214.526Z" fill="white"/>
<path d="M266.222 15.7511C266.222 18.6731 265.627 21.259 264.438 23.5087C263.248 25.7325 261.593 27.478 259.473 28.745C257.353 29.9863 254.896 30.6069 252.103 30.6069C249.337 30.6069 246.893 29.9863 244.772 28.745C242.678 27.478 241.036 25.7325 239.846 23.5087C238.683 21.2848 238.101 18.7119 238.101 15.7899C238.101 12.8679 238.696 10.2949 239.885 8.07111C241.075 5.82141 242.717 4.07596 244.811 2.83474C246.932 1.56768 249.375 0.93414 252.142 0.93414C254.935 0.93414 257.379 1.56768 259.473 2.83474C261.593 4.07596 263.248 5.80848 264.438 8.03232C265.627 10.2562 266.222 12.8291 266.222 15.7511ZM259.589 15.7511C259.589 13.9152 259.292 12.3507 258.697 11.0578C258.103 9.73899 257.249 8.7305 256.137 8.03232C255.051 7.33414 253.732 6.98505 252.181 6.98505C250.629 6.98505 249.298 7.33414 248.186 8.03232C247.074 8.7305 246.221 9.73899 245.626 11.0578C245.031 12.3507 244.734 13.9152 244.734 15.7511C244.734 17.5871 245.031 19.1644 245.626 20.4832C246.221 21.802 247.074 22.8105 248.186 23.5087C249.298 24.2069 250.629 24.556 252.181 24.556C253.732 24.556 255.051 24.2069 256.137 23.5087C257.249 22.7846 258.103 21.7632 258.697 20.4444C259.292 19.1257 259.589 17.5612 259.589 15.7511Z" fill="white"/>
<path d="M276.884 30.1414H270.6V1.43838H281.694C285.185 1.43838 287.874 2.25293 289.762 3.88202C291.675 5.48525 292.632 7.77374 292.632 10.7475C292.632 12.6093 292.231 14.1996 291.429 15.5184C290.654 16.8372 289.464 17.9103 287.861 18.7378L292.903 30.1414H286.038L281.732 20.0954H276.884V30.1414ZM276.884 7.02384V14.5875H281.655C283.025 14.5875 284.086 14.2513 284.836 13.579C285.611 12.9067 285.999 11.9628 285.999 10.7475C285.999 9.53212 285.624 8.61414 284.874 7.99353C284.15 7.34707 283.09 7.02384 281.694 7.02384H276.884Z" fill="white"/>
<path d="M315.535 30.1414H297.305V1.43838H315.535V7.25656H301.843L303.589 5.62747V12.8808H314.178V18.3887H303.589V25.9523L301.843 24.3232H315.535V30.1414Z" fill="white"/>
</svg>
